<?xml version="1.0" standalone="no"?>
<!DOCTYPE svg PUBLIC "-//W3C//DTD SVG 20010904//EN"
 "http://www.w3.org/TR/2001/REC-SVG-20010904/DTD/svg10.dtd">
<svg version="1.0" xmlns="http://www.w3.org/2000/svg"
 width="512.000000pt" height="512.000000pt" viewBox="0 0 512.000000 512.000000"
 preserveAspectRatio="xMidYMid meet">
<metadata>
Created by potrace 1.14, written by Peter Selinger 2001-2017
</metadata>
<g transform="translate(0.000000,512.000000) scale(0.100000,-0.100000)"
fill="#000000" stroke="none">
<path d="M180 4572 l0 -158 134 -11 c149 -11 212 -33 250 -86 21 -28 21 -37
24 -1190 2 -639 0 -1181 -3 -1205 -8 -56 -52 -105 -113 -127 -29 -11 -93 -19
-169 -22 l-123 -6 0 -158 0 -159 620 0 620 0 0 160 0 160 -88 0 c-221 0 -312
49 -327 174 -3 28 -5 460 -3 960 l3 909 769 -1181 769 -1182 208 0 209 0 0
1363 c0 843 4 1385 10 1422 19 119 75 153 276 169 l134 10 0 158 0 158 -620 0
-620 0 0 -159 0 -158 117 -7 c137 -9 233 -35 262 -72 11 -13 24 -47 30 -75 7
-33 11 -338 11 -922 0 -735 -2 -869 -14 -857 -7 8 -338 518 -736 1133 l-723
1117 -453 0 -454 0 0 -158z"/>
<path d="M3540 4571 l0 -158 110 -8 c186 -12 248 -36 281 -110 19 -43 19 -79
16 -1557 -3 -1642 0 -1539 -57 -1702 -29 -86 -62 -137 -123 -193 -78 -71 -154
-95 -319 -101 l-128 -4 0 -174 0 -174 105 0 c127 0 269 15 386 40 404 87 647
366 708 813 7 52 11 549 11 1495 0 886 4 1443 10 1487 19 130 69 162 276 178
l134 11 0 158 0 158 -705 0 -705 0 0 -159z"/>
</g>
</svg>
